<?xml version="1.0" encoding="UTF-8" standalone="no"?>
<svg viewBox="0 0 348 34" version="1.1" xmlns="http://www.w3.org/2000/svg" xmlns:xlink="http://www.w3.org/1999/xlink">
    <defs></defs>
    <g id="Page-1" stroke="none" stroke-width="1" fill="none" fill-rule="evenodd">
        <g id="Artboard-24" transform="translate(-623.000000, -2372.000000)">
            <g id="Group" transform="translate(622.000000, 2372.000000)">
                <path d="M12.2900277,11.81742 L18.4470659,3.22369652 C19.6109148,1.60495576 21.1135674,0.795585377 22.9560336,0.795585377 C24.4591911,0.795585377 25.7598742,1.30922427 26.8590929,2.33650206 C27.9578066,3.36377986 28.5076684,4.59388664 28.5076684,6.02633602 C28.5076684,7.08474345 28.2163275,8.01911875 27.6346555,8.82848913 L22.0835256,16.6045734 L28.8707084,24.8942966 C29.5493257,25.7197182 29.8891393,26.6847368 29.8891393,27.790325 C29.8891393,29.2534176 29.35594,30.5102764 28.2890365,31.5609015 C27.2226379,32.6124993 25.9295286,33.1378118 24.4107184,33.1378118 C22.7459853,33.1378118 21.4776173,32.6163905 20.6046044,31.5730615 L12.2900277,21.5785046 L12.2900277,27.0894219 C12.2900277,28.6624411 12.0072705,29.8837926 11.4417561,30.7554223 C10.4071677,32.3435198 8.90401017,33.1378118 6.93278849,33.1378118 C5.13879499,33.1378118 3.74874036,32.5541312 2.76312952,31.3862837 C1.8421489,30.3118251 1.38165859,28.8876445 1.38165859,27.1127692 L1.38165859,6.68005826 C1.38165859,4.99857183 1.85022768,3.6133033 2.78787078,2.52327984 C3.77297669,1.37148353 5.13071622,0.795585377 6.8600795,0.795585377 C8.508655,0.795585377 9.88204716,1.37148353 10.9812658,2.52327984 C11.594748,3.16192366 11.9825293,3.80786348 12.1446097,4.46158571 C12.2415551,4.86675731 12.2900277,5.62165083 12.2900277,6.7267527 L12.2900277,11.81742" id="Fill-1-Copy" fill="#FFFFFF"></path>
                <path d="M42.8702198,7.31043326 L42.8702198,27.0894219 C42.8702198,28.8025244 42.4097295,30.2111402 41.4887488,31.316242 C40.5026331,32.530784 39.1373197,33.1378118 37.3917989,33.1378118 C35.792201,33.1378118 34.4425402,32.569696 33.3438265,31.4329781 C32.4223409,30.4835244 31.9618506,29.0355102 31.9618506,27.0894219 L31.9618506,7.31043326 C31.9618506,5.10022953 32.4223409,3.49656718 33.3438265,2.49993262 C34.3940675,1.36370113 35.7437283,0.795585377 37.3917989,0.795585377 C39.0403744,0.795585377 40.3895302,1.35591872 41.4402762,2.4765854 C42.3935719,3.50386319 42.8702198,5.11530795 42.8702198,7.31043326" id="Fill-2-Copy" fill="#FFFFFF"></path>
                <path d="M62.9974837,0.164723969 C67.0212198,0.149645554 70.7218048,1.44930761 74.0997435,4.06468293 C76.7500874,6.11923851 78.0750069,8.24480856 78.0750069,10.4394475 C78.0750069,12.3077117 77.2671292,13.7557259 75.6513737,14.7830037 C74.7298882,15.374953 73.7276149,15.6706845 72.6455636,15.6706845 C71.7563932,15.6706845 70.9081216,15.4683419 70.1002438,15.0631703 C69.7604303,14.8919574 68.9202374,14.1059342 67.5786554,12.7046145 C66.3345237,11.3966836 64.7748148,10.7429614 62.9005384,10.7429614 C61.0903874,10.7429614 59.5751117,11.3465844 58.3552163,12.5528575 C57.134816,13.7596171 56.5248683,15.2348697 56.5248683,16.978129 C56.5248683,18.7063099 57.134816,20.1737801 58.3552163,21.3800532 C59.5751117,22.5863264 61.0823086,23.1899494 62.8763021,23.1899494 C64.3627971,23.1899494 65.744773,22.7074401 67.0212198,21.7419352 C67.81294,21.0103889 68.5970863,20.2788426 69.3726489,19.5468099 C70.2128418,18.8463932 71.2792404,18.4961849 72.5723497,18.4961849 C74.0593497,18.4961849 75.3479146,18.9981501 76.4390545,20.0020807 C77.5296895,21.0060113 78.0750069,22.2244445 78.0750069,23.6568938 C78.0750069,25.6029821 76.8874267,27.5719312 74.5117612,29.5647139 C71.1828,32.3673534 67.3362921,33.7681868 62.9732474,33.7681868 C60.2739259,33.7681868 57.7286061,33.2151495 55.337288,32.110534 C52.3148154,30.7092142 49.9108743,28.6502811 48.1254645,25.9337344 C46.3395497,23.2171878 45.4468448,20.2472265 45.4468448,17.0248234 C45.4468448,12.198758 47.3049636,8.08916041 51.0222111,4.69505794 C54.3026996,1.70612706 58.2946255,0.196339999 62.9974837,0.164723969" id="Fill-3-Copy" fill="#FFFFFF"></path>
                <path d="M91.4928463,11.81742 L97.6503894,3.22369652 C98.8137334,1.60495576 100.316891,0.795585377 102.159357,0.795585377 C103.66201,0.795585377 104.962693,1.30922427 106.061911,2.33650206 C107.160625,3.36377986 107.710487,4.59388664 107.710487,6.02633602 C107.710487,7.08474345 107.419651,8.01911875 106.837474,8.82848913 L101.286344,16.6045734 L108.073527,24.8942966 C108.752649,25.7197182 109.091958,26.6847368 109.091958,27.790325 C109.091958,29.2534176 108.558759,30.5102764 107.49236,31.5609015 C106.425456,32.6124993 105.132347,33.1378118 103.613537,33.1378118 C101.948804,33.1378118 100.680436,32.6163905 99.807423,31.5730615 L91.4928463,21.5785046 L91.4928463,27.0894219 C91.4928463,28.6624411 91.2100891,29.8837926 90.6445747,30.7554223 C89.6099862,32.3435198 88.1073337,33.1378118 86.1356071,33.1378118 C84.3421185,33.1378118 82.9520638,32.5541312 81.966453,31.3862837 C81.0449675,30.3118251 80.5844772,28.8876445 80.5844772,27.1127692 L80.5844772,6.68005826 C80.5844772,4.99857183 81.0530462,3.6133033 81.9906893,2.52327984 C82.9763002,1.37148353 84.3335348,0.795585377 86.0628981,0.795585377 C87.7114736,0.795585377 89.0848657,1.37148353 90.1840844,2.52327984 C90.7980714,3.16192366 91.1858528,3.80786348 91.3474283,4.46158571 C91.4443736,4.86675731 91.4928463,5.62165083 91.4928463,6.7267527 L91.4928463,11.81742" id="Fill-4-Copy" fill="#FFFFFF"></path>
                <path d="M115.935187,20.8542543 C117.147509,20.8542543 118.440113,21.3678932 119.81401,22.3956574 C121.526711,23.6880235 122.698639,24.3339633 123.328783,24.3339633 C124.265921,24.3339633 124.734995,23.8670188 124.734995,22.9326435 C124.734995,22.4190046 124.459812,21.9836762 123.910455,21.6251991 C123.619619,21.4384213 121.987201,20.8391759 119.014211,19.8269765 C114.149273,18.1771061 111.717561,15.125916 111.717561,10.6729197 C111.717561,7.31043326 113.002086,4.6566323 115.571642,2.71005762 C117.817542,1.01349279 120.597652,0.164723969 123.910455,0.164723969 C126.770847,0.164723969 129.259616,0.822823804 131.37676,2.13805067 C133.493905,3.45376394 134.552225,5.14692398 134.552225,7.21704437 C134.552225,8.46271597 134.15283,9.50215378 133.352526,10.334385 C132.552727,11.167589 131.5141,11.5839478 130.237653,11.5839478 C128.896071,11.5839478 127.409576,10.9691376 125.777158,9.73903081 C124.759232,8.97635487 123.991243,8.5950169 123.474201,8.5950169 C122.585536,8.5950169 122.141203,9.01526691 122.141203,9.85576692 C122.141203,10.6495725 123.239917,11.3738228 125.437849,12.027545 C128.475974,12.9463555 130.827403,14.0670222 132.492137,15.3905179 C134.705722,17.1649068 135.813019,19.65625 135.813019,22.8626019 C135.813019,26.3505796 134.568382,29.0744223 132.080119,31.0360754 C129.768579,32.8576451 126.762769,33.7681868 123.062184,33.7681868 C119.361599,33.7681868 116.299237,32.8192195 113.875099,30.9193392 C111.935688,29.4095522 110.966234,27.6424593 110.966234,25.6180605 C110.966234,24.2639216 111.442377,23.1354725 112.396178,22.2322269 C113.349474,21.3294676 114.52948,20.8703055 115.935187,20.8542543" id="Fill-5-Copy" fill="#2ADE73"></path>
                <path d="M145.563598,10.813003 L142.67897,10.813003 C141.078867,10.813003 139.753948,10.3932394 138.703706,9.55225303 C137.58833,8.64949376 137.030895,7.44322059 137.030895,5.93294713 C137.030895,5.03018786 137.29396,4.16196303 137.818575,3.32924542 C138.343696,2.49652782 139.022313,1.90457845 139.854932,1.55437011 C140.687046,1.20367537 142.662812,1.0290576 145.781725,1.0290576 L156.787545,1.0290576 C159.485856,1.0290576 161.230872,1.18470575 162.023602,1.49600205 C162.895605,1.83842798 163.603003,2.42648615 164.144281,3.25920375 C164.685559,4.09192136 164.956703,4.9674422 164.956703,5.88576629 C164.956703,7.33378049 164.358369,8.5950169 163.163215,9.66898914 C162.305855,10.4321515 160.908731,10.813003 158.968815,10.813003 L156.472472,10.813003 L156.472472,26.6925192 C156.472472,28.4202136 156.164974,29.7592741 155.550482,30.7092142 C154.516903,32.2968254 153.021825,33.0911173 151.06676,33.0911173 C149.111191,33.0911173 147.608034,32.3673534 146.557288,30.9193392 C145.894828,30.01658 145.563598,28.6463898 145.563598,26.8092553 L145.563598,10.813003" id="Fill-6-Copy" fill="#2ADE73"></path>
                <path d="M172.183675,28.7709084 C171.665623,29.9543207 171.132424,30.8337328 170.583067,31.4096309 C169.484353,32.5619136 168.15085,33.1378118 166.583567,33.1378118 C164.659808,33.1378118 163.165235,32.3907007 162.098836,30.8955056 C161.468691,30.0083112 161.153619,29.012163 161.153619,27.9070611 C161.153619,26.9882506 161.379825,26.0616578 161.832741,25.1277689 L172.183675,3.90125237 C173.184938,1.83113198 174.85775,0.795585377 177.2011,0.795585377 C179.576766,0.795585377 181.281388,1.86177521 182.315976,3.99464126 L192.76436,25.3845883 C193.184456,26.2411395 193.394505,27.0894219 193.394505,27.9304084 C193.394505,29.1755936 192.973903,30.2811818 192.13371,31.2462004 C191.034492,32.5074368 189.62828,33.1378118 187.915579,33.1378118 C186.509872,33.1378118 185.337944,32.7175618 184.400301,31.8765754 C183.705526,31.2544692 183.010751,30.2189226 182.315976,28.7709084 L172.183675,28.7709084" id="Fill-7-Copy" fill="#2ADE73"></path>
                <path d="M217.748989,20.6207821 L220.31905,24.5907827 C221.029982,25.696371 221.385449,26.8326025 221.385449,27.9999636 C221.385449,29.4791075 220.855784,30.705323 219.797969,31.678124 C218.739144,32.6514113 217.441995,33.1378118 215.907028,33.1378118 C213.935301,33.1378118 212.440222,32.3284414 211.422801,30.7092142 L206.864856,23.5168105 L206.864856,27.8365331 C206.864856,29.3156769 206.359428,30.5691309 205.34958,31.5964087 C204.339733,32.6236865 203.067326,33.1378118 201.532358,33.1378118 C199.657577,33.1378118 198.235712,32.491872 197.265754,31.1990195 C196.393246,30.0632744 195.956487,28.5685658 195.956487,26.7158664 L195.956487,7.07696104 C195.956487,3.04518755 198.210971,1.0290576 202.719433,1.0290576 L209.653044,1.0290576 C211.931764,1.0290576 214.048404,1.66332381 216.003973,2.93185624 C217.959037,4.20136146 219.389486,5.84734065 220.294309,7.871253 C220.973431,9.39660488 221.313244,10.9302256 221.313244,12.4711422 C221.313244,15.3516058 220.124654,18.0681524 217.748989,20.6207821" id="Fill-8-Copy" fill="#2ADE73"></path>
                <path d="M231.456654,10.813003 L228.572531,10.813003 C226.972933,10.813003 225.647509,10.3932394 224.597267,9.55225303 C223.481891,8.64949376 222.924456,7.44322059 222.924456,5.93294713 C222.924456,5.03018786 223.187521,4.16196303 223.712641,3.32924542 C224.237257,2.49652782 224.915369,1.90457845 225.748493,1.55437011 C226.580102,1.20367537 228.556373,1.0290576 231.675286,1.0290576 L242.680601,1.0290576 C245.379922,1.0290576 247.124938,1.18470575 247.917163,1.49600205 C248.789166,1.83842798 249.496059,2.42648615 250.037842,3.25920375 C250.579625,4.09192136 250.850264,4.9674422 250.850264,5.88576629 C250.850264,7.33378049 250.25193,8.5950169 249.056271,9.66898914 C248.199416,10.4321515 246.801787,10.813003 244.862376,10.813003 L242.366033,10.813003 L242.366033,26.6925192 C242.366033,28.4202136 242.058535,29.7592741 241.444548,30.7092142 C240.410464,32.2968254 238.915386,33.0911173 236.959817,33.0911173 C235.004247,33.0911173 233.50109,32.3673534 232.450849,30.9193392 C231.788389,30.01658 231.456654,28.6463898 231.456654,26.8092553 L231.456654,10.813003" id="Fill-9-Copy" fill="#2ADE73"></path>
                <path d="M264.29133,23.0493796 L269.24968,23.0493796 C271.29765,23.0493796 272.821509,23.4545512 273.821763,24.2639216 C274.99874,25.2294266 275.587481,26.4746118 275.587481,27.9999636 C275.587481,29.5569315 274.997225,30.8181679 273.817724,31.7831865 C272.896743,32.530784 271.385507,32.9038532 269.28452,32.9038532 L260.776052,32.9038532 C258.772011,32.9038532 257.398113,32.7564738 256.655371,32.4602559 C255.200686,31.8848442 254.239311,30.9426865 253.770237,29.635242 C253.479401,28.7942556 253.334488,27.4162831 253.334488,25.5018108 L253.334488,8.1747669 C253.334488,6.7267527 253.382456,5.75395176 253.479401,5.25539128 C253.657135,4.2436783 254.085815,3.38761348 254.763927,2.6867104 C255.539995,1.89290484 256.525605,1.38704835 257.721769,1.16914094 C258.287284,1.07575205 259.43447,1.0290576 261.163834,1.0290576 L267.684417,1.0290576 C269.462253,1.0290576 270.496841,1.04462242 270.787677,1.07575205 C271.951526,1.18470575 272.904317,1.51156687 273.648069,2.05633539 C274.972989,3.02184033 275.635448,4.28307674 275.635448,5.83955824 C275.635448,7.52055827 275.055291,8.80514191 273.893967,9.69233636 C272.861903,10.4861419 271.451147,10.8830447 269.660688,10.8830447 L264.29133,10.8830447 L264.29133,13.0548228 L268.569548,13.0548228 C269.826808,13.0548228 270.866445,13.3743879 271.687956,14.0125453 C272.558444,14.6978836 272.993688,15.6395549 272.993688,16.8380457 C272.993688,19.3755969 271.389546,20.6441293 268.182776,20.6441293 L264.29133,20.6441293 L264.29133,23.0493796" id="Fill-10-Copy" fill="#2ADE73"></path>
                <path d="M299.635981,20.6207821 L302.205537,24.5907827 C302.91647,25.696371 303.271936,26.8326025 303.271936,27.9999636 C303.271936,29.4791075 302.742271,30.705323 301.683951,31.678124 C300.625631,32.6514113 299.328483,33.1378118 297.79301,33.1378118 C295.821284,33.1378118 294.32671,32.3284414 293.308784,30.7092142 L288.751343,23.5168105 L288.751343,27.8365331 C288.751343,29.3156769 288.245915,30.5691309 287.236573,31.5964087 C286.226221,32.6236865 284.953813,33.1378118 283.418846,33.1378118 C281.543559,33.1378118 280.121694,32.491872 279.151736,31.1990195 C278.279228,30.0632744 277.843479,28.5685658 277.843479,26.7158664 L277.843479,7.07696104 C277.843479,3.04518755 280.097458,1.0290576 284.606426,1.0290576 L291.539532,1.0290576 C293.817747,1.0290576 295.934891,1.66332381 297.89046,2.93185624 C299.845525,4.20136146 301.275973,5.84734065 302.181301,7.871253 C302.859413,9.39660488 303.198722,10.9302256 303.198722,12.4711422 C303.198722,15.3516058 302.011647,18.0681524 299.635981,20.6207821" id="Fill-11-Copy" fill="#2ADE73"></path>
                <path d="M318.897333,25.7357333 L318.897333,22.3402667 L320.833067,22.3402667 C321.118668,22.3402667 321.393688,22.361422 321.658133,22.4037333 C321.922579,22.4460447 322.155288,22.5280216 322.356267,22.6496667 C322.557245,22.7713117 322.718555,22.9431989 322.8402,23.1653333 C322.961845,23.3874678 323.022667,23.6783538 323.022667,24.038 C323.022667,24.3976462 322.961845,24.6885322 322.8402,24.9106667 C322.718555,25.1328011 322.557245,25.3046883 322.356267,25.4263333 C322.155288,25.5479784 321.922579,25.6299553 321.658133,25.6722667 C321.393688,25.714578 321.118668,25.7357333 320.833067,25.7357333 L318.897333,25.7357333 Z M316.406267,20.4045333 L316.406267,31.7333333 L318.897333,31.7333333 L318.897333,27.6714667 L321.515333,27.6714667 C322.224048,27.6714667 322.826975,27.5683344 323.324133,27.3620667 C323.821291,27.155799 324.225887,26.8834239 324.537933,26.5449333 C324.849979,26.2064428 325.077399,25.8177133 325.2202,25.3787333 C325.363001,24.9397534 325.4344,24.4928467 325.4344,24.038 C325.4344,23.5725755 325.363001,23.1230244 325.2202,22.6893333 C325.077399,22.2556423 324.849979,21.8695572 324.537933,21.5310667 C324.225887,21.1925761 323.821291,20.920201 323.324133,20.7139333 C322.826975,20.5076656 322.224048,20.4045333 321.515333,20.4045333 L316.406267,20.4045333 Z M329.4804,24.99 L329.4804,22.3402667 L331.8128,22.3402667 C332.034934,22.3402667 332.249132,22.3587776 332.4554,22.3958 C332.661668,22.4328224 332.844133,22.4989329 333.0028,22.5941333 C333.161467,22.6893338 333.2884,22.8215547 333.3836,22.9908 C333.4788,23.1600453 333.5264,23.3768876 333.5264,23.6413333 C333.5264,24.1173357 333.383601,24.4611101 333.098,24.6726667 C332.812399,24.8842233 332.447469,24.99 332.0032,24.99 L329.4804,24.99 Z M326.989333,20.4045333 L326.989333,31.7333333 L332.4792,31.7333333 C332.986936,31.7333333 333.481442,31.6698673 333.962733,31.5429333 C334.444025,31.4159994 334.87242,31.2203124 335.247933,30.9558667 C335.623446,30.6914209 335.922266,30.350291 336.1444,29.9324667 C336.366534,29.5146424 336.4776,29.0201362 336.4776,28.4489333 C336.4776,27.7402187 336.305713,27.134647 335.961933,26.6322 C335.618154,26.129753 335.097203,25.7780454 334.399067,25.5770667 C334.906803,25.3337766 335.290243,25.0217352 335.5494,24.6409333 C335.808557,24.2601314 335.938133,23.7841362 335.938133,23.2129333 C335.938133,22.6840418 335.850868,22.2397796 335.676333,21.8801333 C335.501799,21.5204871 335.255868,21.2322455 334.938533,21.0154 C334.621198,20.7985545 334.240402,20.6425338 333.796133,20.5473333 C333.351864,20.4521329 332.860003,20.4045333 332.320533,20.4045333 L326.989333,20.4045333 Z M329.4804,29.7976 L329.4804,26.6877333 L332.1936,26.6877333 C332.733069,26.6877333 333.166754,26.812021 333.494667,27.0606 C333.822579,27.309179 333.986533,27.7243526 333.986533,28.3061333 C333.986533,28.6023126 333.936289,28.845599 333.8358,29.036 C333.735311,29.226401 333.600445,29.3771328 333.4312,29.4882 C333.261955,29.5992672 333.066268,29.6785998 332.844133,29.7262 C332.621999,29.7738002 332.38929,29.7976 332.146,29.7976 L329.4804,29.7976 Z M345.712,24.2125333 L348.123733,24.2125333 C348.049689,23.5567078 347.869868,22.9749359 347.584267,22.4672 C347.298665,21.9594641 346.93638,21.5337128 346.4974,21.1899333 C346.05842,20.8461538 345.561269,20.5843565 345.005933,20.4045333 C344.450597,20.2247102 343.860892,20.1348 343.2368,20.1348 C342.369418,20.1348 341.589315,20.2881762 340.896467,20.5949333 C340.203619,20.9016904 339.619202,21.3247973 339.1432,21.8642667 C338.667198,22.403736 338.302268,23.0357519 338.0484,23.7603333 C337.794532,24.4849147 337.6676,25.2703069 337.6676,26.1165333 C337.6676,26.9416041 337.794532,27.7111298 338.0484,28.4251333 C338.302268,29.1391369 338.667198,29.7605751 339.1432,30.2894667 C339.619202,30.8183582 340.203619,31.2335318 340.896467,31.535 C341.589315,31.8364682 342.369418,31.9872 343.2368,31.9872 C343.934937,31.9872 344.574886,31.8814233 345.156667,31.6698667 C345.738447,31.4583101 346.246176,31.1515576 346.679867,30.7496 C347.113558,30.3476424 347.462621,29.8610695 347.727067,29.2898667 C347.991512,28.7186638 348.155466,28.0787147 348.218933,27.37 L345.8072,27.37 C345.712,28.1316038 345.450202,28.7451088 345.0218,29.2105333 C344.593398,29.6759579 343.998404,29.9086667 343.2368,29.9086667 C342.676175,29.9086667 342.20018,29.8002455 341.8088,29.5834 C341.41742,29.3665545 341.10009,29.0783129 340.8568,28.7186667 C340.61351,28.3590204 340.436334,27.9544245 340.325267,27.5048667 C340.214199,27.0553089 340.158667,26.5925357 340.158667,26.1165333 C340.158667,25.6193753 340.214199,25.1380912 340.325267,24.6726667 C340.436334,24.2072421 340.61351,23.7920685 340.8568,23.4271333 C341.10009,23.0621982 341.41742,22.7713122 341.8088,22.5544667 C342.20018,22.3376211 342.676175,22.2292 343.2368,22.2292 C343.543557,22.2292 343.837087,22.2794439 344.1174,22.3799333 C344.397713,22.4804227 344.648932,22.6205769 344.871067,22.8004 C345.093201,22.9802231 345.27831,23.1891321 345.4264,23.4271333 C345.57449,23.6651345 345.669689,23.9269319 345.712,24.2125333 L345.712,24.2125333 Z" id="PBC-Copy-2" fill="#FFFFFF"></path>
            </g>
        </g>
    </g>
</svg>
